ply
format ascii 1.0
element vertex 1042
property float x
property float y
property float z
property uchar red
property uchar green
property uchar blue
end_header
-21.045422 11.880418 45.892925 186 187 173
-17.247208 11.873178 38.010601 93 98 94
-19.893314 12.043329 44.767109 181 185 170
-15.857642 11.438381 35.980114 179 181 170
-17.234823 11.706890 39.436207 189 195 183
-16.025803 11.373500 37.578445 184 189 182
-19.771379 12.335256 46.597000 174 180 170
-15.883080 11.641191 37.785618 93 99 99
-20.261427 -11.213332 48.486832 126 115 111
-15.758115 11.467727 38.407494 189 194 187
-14.963533 11.320057 37.069668 85 97 95
-12.342432 11.052164 30.676674 135 143 132
-6.944926 10.433237 17.291492 192 206 206
-6.532571 10.293312 16.364641 129 149 147
-6.532571 10.293312 16.364641 129 149 147
-18.822262 11.903241 47.194687 181 187 177
-6.391763 10.339272 16.060884 127 147 145
-14.904760 11.598089 37.480358 181 189 178
-15.267483 11.423078 38.380142 181 187 177
-14.714863 11.391311 37.565666 92 101 100
-14.714863 11.391311 37.565666 92 101 100
-7.123998 10.387717 18.267473 204 219 214
-19.433186 -0.406859 49.947418 216 224 227
-14.698570 11.351611 38.318802 179 187 176
-7.658042 10.569650 20.384714 154 165 157
-14.088496 11.217204 38.075642 173 183 172
-14.121243 11.686701 38.362232 177 187 178
-10.940014 -4.596399 30.015203 172 154 142
-11.710917 2.421533 32.271080 125 120 116
-7.133305 -2.978034 20.470112 115 102 93
-13.741820 11.596957 39.651173 123 126 115
-6.842333 -2.243275 19.866589 119 109 99
-12.891659 11.242012 37.522125 184 188 174
-4.058662 -5.873771 11.975230 87 82 86
-3.929770 -5.313547 11.763801 173 169 168
-3.738741 -5.158053 11.311728 127 123 120
-3.184726 -5.625431 9.825505 96 94 99
-3.086885 -5.573365 9.603354 84 82 87
-3.117309 -4.926494 9.720662 110 112 111
-3.138541 -4.442200 9.818560 179 175 176
-3.729491 -3.363561 11.688848 194 184 183
-3.088622 -4.946397 9.762084 140 145 151
-3.605098 -2.122866 11.423268 206 198 195
-3.044993 -4.327491 9.723445 93 92 98
-3.016124 -4.940503 9.677862 64 71 79
-2.991706 -2.535694 9.897122 106 100 100
-2.991706 -2.535694 9.897122 106 100 100
-3.207987 -1.360527 10.648694 212 211 207
-2.952751 -2.006466 9.966812 190 187 180
-2.844242 -5.619566 9.648159 135 131 130
-2.955047 -0.471605 10.252628 141 127 127
-2.804822 -1.983953 9.933267 168 169 161
-2.797839 -2.436686 9.990726 169 170 165
-2.813495 -0.204313 10.135393 150 134 135
-2.820955 -0.689867 10.196980 182 182 184
-2.849927 1.642194 10.307313 167 163 160
-2.687209 -5.671924 9.772987 133 132 137
-2.687209 -5.671924 9.772987 133 132 137
-2.668078 -5.903608 9.718984 132 131 136
-2.744856 -1.999268 10.074527 183 180 175
-2.650025 -5.507162 9.744246 112 119 125
-2.795271 1.086380 10.295471 182 177 171
-2.935230 4.150898 10.817807 70 71 65
-2.635952 -6.108381 9.738425 54 58 67
-2.663655 -4.449443 9.831307 159 160 155
-2.944046 5.113658 10.905030 169 164 160
-2.638315 -5.619074 9.808755 50 55 61
-2.938380 5.160161 10.917876 104 99 95
-2.938380 5.160161 10.917876 104 99 95
-2.960386 5.346870 11.017626 120 115 111
-2.901110 4.182201 10.800367 152 148 145
-2.735322 -0.218281 10.249027 141 127 127
-2.956864 6.104435 11.117534 171 173 170
-2.623183 -4.551950 9.869824 123 126 119
-2.919736 5.426028 11.002143 82 84 83
-2.735819 1.115129 10.341218 128 129 121
-2.577338 -5.531287 9.789567 141 150 155
-2.914940 5.415380 11.134871 167 163 160
-2.556692 -5.687181 9.808611 112 117 121
-2.865359 5.481558 10.981602 140 144 145
-2.574645 -5.637130 9.886111 93 102 107
-2.931473 6.914237 11.280560 118 116 117
-2.565938 -4.624881 9.865836 147 149 144
-2.827198 5.389019 10.962420 76 76 76
-2.879547 6.706738 11.189532 75 76 78
-2.900429 7.407162 11.343472 73 74 76
-2.514097 -5.641426 9.865025 53 58 62
-2.795861 5.356996 11.025618 158 159 154
-2.535880 -2.235714 10.100874 165 156 151
-2.749051 4.867683 10.987004 151 148 143
-2.570364 -0.234479 10.372638 142 130 132
-2.456323 -3.723778 10.043181 120 119 124
-2.467819 -2.469368 10.112664 164 165 160
-2.685122 5.361426 11.026742 160 158 161
-2.701172 5.818473 11.147197 108 96 98
-2.402718 -4.452895 9.945047 154 156 155
-2.402718 -4.452895 9.945047 154 156 155
-2.509166 -1.104250 10.375380 165 151 148
-2.381693 -4.717180 9.932550 159 160 155
-2.404748 -3.676244 10.023688 70 68 71
-2.412157 -2.644222 10.153433 142 133 134
-2.397909 -3.258990 10.105956 135 126 127
-2.368853 -3.620131 10.013934 146 147 151
-2.371581 -3.778193 10.057117 59 60 65
-2.450605 0.464303 10.436718 172 168 169
-2.425739 -0.706228 10.344551 173 173 173
-2.455812 1.583935 10.498878 72 66 66
-2.590406 5.351345 11.079801 153 152 148
-2.338699 -4.430088 10.033052 48 49 54
-2.338699 -4.430088 10.033052 48 49 54
-2.345282 -3.658026 10.064984 53 58 64
-2.303988 -4.805478 10.005262 138 139 143
-2.290935 -4.910206 9.969862 124 132 134
-2.314381 -3.715541 10.090377 171 176 180
-2.314381 -3.715541 10.090377 171 176 180
-2.460758 3.772482 10.841697 153 144 137
-2.460758 3.772482 10.841697 153 144 137
-2.311338 -2.491526 10.224862 69 70 72
-2.236398 -5.567878 9.947382 106 115 120
-2.273765 -3.255266 10.182229 134 134 136
-2.485597 5.366506 11.134824 147 142 136
-2.302473 -1.996192 10.319682 58 62 63
-2.309103 -1.035282 10.377915 161 151 149
-2.295302 -2.559371 10.319074 188 189 193
-2.229714 -3.728680 10.080978 163 168 171
-2.482670 6.337734 11.264299 134 129 125
-2.277575 -1.975839 10.365741 49 54 57
-2.295859 -0.122319 10.468429 161 156 153
-2.293000 -0.797337 10.457329 62 58 55
-2.210624 -4.443284 10.098359 59 59 67
-2.427489 5.310964 11.170438 146 139 133
-2.275306 -0.004303 10.509228 168 158 157
-2.265429 0.451818 10.467419 186 182 181
-2.275996 0.254283 10.546973 155 145 143
-2.245992 -0.729927 10.491672 173 175 174
-2.236938 -0.179727 10.466161 64 60 61
-2.254309 -0.143886 10.555999 49 45 46
-2.331151 4.102518 10.964067 61 60 58
-2.125402 -5.593973 10.023499 105 110 114
-2.245157 0.391644 10.598518 55 51 52
-2.147589 -3.256764 10.154901 132 123 126
-2.293727 3.831722 10.861478 127 120 114
-2.293727 3.831722 10.861478 127 120 114
-2.293727 3.831722 10.861478 127 120 114
-2.202892 -0.828838 10.440780 185 179 179
-2.263398 2.729871 10.759274 129 101 100
-2.198013 -0.739780 10.491326 157 163 159
-2.197073 -0.738463 10.491159 157 163 159
-2.220466 1.020217 10.605408 60 56 55
-2.090211 -5.698146 10.047127 30 40 42
-2.145043 -1.984703 10.323243 62 62 64
-2.278396 3.988369 10.982260 160 153 147
-2.278396 3.988369 10.982260 160 153 147
-2.180995 0.437926 10.650388 175 174 172
-2.163426 1.061462 10.626051 162 158 157
-2.082141 -3.208879 10.229271 58 53 57
-2.228582 4.048929 10.986355 153 150 143
-2.007774 -5.702986 9.992449 116 117 122
-2.246114 4.861508 11.191610 139 136 131
-2.188225 4.097950 11.044732 64 64 62
-2.211628 5.025840 11.227310 162 161 157
-2.186097 4.779715 11.162732 64 56 54
-2.131973 3.506332 10.917049 147 143 142
-1.989372 -3.261074 10.223472 122 110 112
-2.167754 4.831936 11.149153 39 39 37
-1.955481 -5.631509 10.095359 99 108 113
-2.215151 6.618387 11.415961 116 111 108
-2.113316 3.987141 10.960245 141 136 132
-2.142536 4.985590 11.234075 124 122 123
-2.042108 3.100161 10.748298 149 149 141
-2.128365 5.048153 11.222725 127 121 121
-2.126919 5.453686 11.330391 148 148 148
-1.894779 -4.342686 10.159419 145 150 153
-2.157452 7.536695 11.629744 62 64 61
-1.880302 -4.849771 10.151099 70 65 71
-1.930843 -0.844068 10.507032 133 117 118
-2.105075 6.639710 11.496094 141 129 131
-1.885523 -2.221176 10.419855 165 146 148
-1.890638 -1.152703 10.529742 115 99 99
-2.030029 6.634779 11.396546 62 56 58
-1.862259 -3.003087 10.440333 138 126 128
-1.811459 -4.500670 10.167433 122 117 123
-1.783442 -0.266867 10.612190 162 143 145
-1.678322 -5.581996 10.105097 94 99 105
-1.797389 -0.507440 10.790696 141 126 129
-1.797389 -0.507440 10.790696 141 126 129
-1.694826 -5.766416 10.205611 100 98 99
-1.665696 -5.150115 10.234164 115 116 118
-1.665696 -5.150115 10.234164 115 116 118
-1.668972 -3.767765 10.319942 133 131 136
-1.707208 -0.871011 10.677254 135 123 125
-1.627252 -3.932695 10.274606 113 106 113
-1.627252 -3.932695 10.274606 113 106 113
-1.627495 -4.352873 10.273744 123 122 127
-1.636028 -5.135424 10.353762 48 52 55
-1.629658 -3.954674 10.339017 122 115 122
-1.629658 -3.954674 10.339017 122 115 122
-1.593900 -5.521029 10.235179 30 29 35
-1.628711 -3.181188 10.431541 130 130 130
-1.614738 -2.567096 10.465197 155 155 153
-1.563988 -5.741633 10.264759 39 40 44
-1.575015 -3.873165 10.363570 54 53 58
-1.545728 -5.582668 10.205005 107 112 116
-1.556242 -4.427936 10.311511 42 50 52
-1.556242 -4.427936 10.311511 42 50 52
-1.550015 -4.292989 10.315649 43 42 47
-1.569297 -3.190087 10.451341 144 148 149
-1.568224 -2.922812 10.522053 128 108 109
-1.715882 6.656525 11.635110 119 109 107
-1.571092 -1.530639 10.660830 149 134 129
-1.679625 5.429566 11.433093 134 130 129
-1.555316 -2.676295 10.608549 67 63 64
-1.629619 4.328809 11.314865 127 116 112
-1.526364 -1.690382 10.619860 167 157 155
-1.502236 -3.188716 10.490656 157 158 160
-1.481864 -3.831738 10.451863 131 135 138
-1.534632 -0.762586 10.820827 167 159 157
-1.471105 -3.291722 10.413078 127 118 123
-1.524914 -1.455688 10.840918 64 59 55
-1.553600 3.932766 11.178711 125 105 106
-1.497086 -0.707262 10.829509 52 44 41
-1.492699 -0.809092 10.829108 36 32 31
-1.504458 0.891858 10.927508 136 121 118
-1.446100 -2.618637 10.628062 148 150 149
-1.505027 2.076502 11.048602 125 104 101
-1.494521 2.220428 11.006756 194 198 199
-1.479120 -0.245266 10.905462 64 60 59
-1.446899 -1.958373 10.689954 175 179 178
-1.479166 1.486711 11.018619 141 120 117
-1.465876 0.508526 10.976009 73 63 62
-1.456944 2.236068 10.924926 128 118 117
-1.406959 -1.656243 10.630913 124 110 110
-1.406862 -1.479563 10.655558 67 53 53
-1.433329 -0.306630 10.883753 173 159 158
-1.457926 3.338261 11.179648 119 94 90
-1.423994 0.416775 10.923283 171 172 167
-1.364710 -3.321864 10.481353 121 116 120
-1.440946 1.560937 11.056598 46 41 38
-1.425821 0.919746 10.989598 53 47 47
-1.443726 2.834197 11.163301 160 160 158
-1.379204 -1.475280 10.727480 137 123 123
-1.399018 0.982058 10.968612 168 167 165
-1.393636 -0.192741 10.973348 165 167 166
-1.393610 0.838753 10.969739 192 184 182
-1.422251 4.106576 11.317357 143 141 142
-1.344647 -1.977678 10.724109 164 168 167
-1.411554 3.404510 11.242963 51 44 38
-1.383901 2.082621 11.078106 165 157 154
-1.338708 -0.775877 10.838371 161 156 153
-1.387216 4.044538 11.302563 57 49 47
-1.437978 6.143552 11.750898 140 136 137
-1.408486 5.423008 11.567389 146 140 140
-1.341483 2.069009 11.015563 107 89 89
-1.355331 2.885253 11.145350 168 160 158
-1.268139 -2.978553 10.511652 126 117 120
-1.268139 -2.978553 10.511652 126 117 120
-1.393832 5.699144 11.588889 136 121 116
-1.383030 4.712100 11.487759 47 41 41
-1.395854 7.236778 11.829727 115 97 97
-1.383780 6.744913 11.784101 140 134 134
-1.319986 4.113145 11.304111 140 132 130
-1.348212 5.981369 11.634131 51 42 43
-1.317147 5.728683 11.630202 140 125 122
-1.333082 6.695226 11.770687 51 40 46
-1.333082 6.695226 11.770687 51 40 46
-1.305841 5.875001 11.589296 150 136 133
-1.249478 3.348911 11.116185 50 46 47
-1.324732 7.168574 11.849814 51 47 46
-1.290429 6.070338 11.695525 135 134 132
-1.250419 4.703688 11.512522 48 43 40
-1.282222 7.390909 11.946053 124 120 117
-1.261815 7.138493 11.791222 121 113 111
-1.221717 4.647879 11.532021 117 99 97
-1.240012 6.044823 11.770021 39 34 30
-1.068159 -5.794872 10.369320 82 76 78
-1.227399 7.326454 11.905481 59 49 47
-1.070883 -4.408890 10.456952 113 115 114
-1.023333 -2.575110 10.639670 134 134 134
-0.990555 -5.813202 10.516434 28 27 33
-1.005037 -1.524463 10.910899 123 109 109
-0.966576 -3.970098 10.620753 111 99 101
-0.993650 -0.199287 11.086873 159 159 159
-0.933152 -4.440176 10.547587 109 110 112
-0.873711 -5.894175 10.479143 99 97 100
-0.935504 0.878161 11.202415 174 156 152
-0.890294 -3.375481 10.773220 118 114 115
-0.894665 -0.902251 10.999450 129 109 111
-0.897921 1.141746 11.208127 222 199 193
-0.864196 -2.699522 10.841144 45 45 45
-0.824476 -5.188723 10.562338 103 94 99
-0.826881 -3.829934 10.655332 122 118 119
-0.809420 -3.647208 10.698130 137 133 132
-0.800276 -4.603960 10.769276 35 35 37
-0.799073 -3.380783 10.753146 132 128 127
-0.799073 -3.380783 10.753146 132 128 127
-0.810610 -1.530639 10.982597 122 108 108
-0.775633 -5.147506 10.627213 6 4 9
-0.772384 -5.803821 10.612803 35 36 41
-0.772384 -5.803821 10.612803 35 36 41
-0.792762 -2.781974 10.870439 118 106 110
-0.774078 -3.783568 10.718371 35 35 33
-0.812402 0.831220 11.231401 170 152 142
-0.836634 5.390309 11.748485 129 128 126
-0.778553 -2.137153 10.914441 136 126 127
-0.778553 -2.137153 10.914441 136 126 127
-0.766721 -2.677868 10.900983 34 34 34
-0.770897 -0.213915 11.172949 172 172 172
-0.727589 -4.970440 10.625030 115 114 119
-0.728374 -3.767627 10.725771 151 151 149
-0.717782 -3.825438 10.669077 152 154 151
-0.748752 -2.066132 11.048368 39 39 37
-0.724855 -3.716149 10.755738 151 151 149
-0.713149 -5.071347 10.631599 111 108 115
-0.734970 -1.413790 11.080892 147 147 145
-0.735113 -1.426113 11.150801 144 144 142
-0.740249 2.049521 11.318285 120 101 97
-0.686319 -4.542617 10.755770 97 101 104
-0.714539 -1.352041 11.139972 144 138 138
-0.674707 -5.182523 10.588003 100 96 97
-0.682091 -3.646479 10.729886 156 155 151
-0.704373 -1.261216 11.091887 142 130 132
-0.713064 0.265200 11.281619 119 103 103
-0.659195 -3.990665 10.668966 105 93 95
-0.695639 0.206629 11.229080 124 110 107
-0.680316 -2.064329 11.033587 43 45 42
-0.673082 -1.476257 11.086910 38 34 31
-0.673082 -1.476257 11.086910 38 34 31
-0.682556 -0.219915 11.254159 160 156 155
-0.676329 -0.838883 11.157068 140 136 133
-0.688934 1.437512 11.378772 130 107 99
-0.681482 1.157628 11.389134 136 111 106
-0.683546 2.656774 11.417721 129 100 94
-0.676631 2.180278 11.423099 155 155 155
-0.626271 -3.842341 10.695381 121 123 120
-0.659022 0.841682 11.262077 158 145 136
-0.673181 4.056311 11.564243 136 127 128
-0.655907 -0.280876 11.290762 51 39 39
-0.655907 -0.280876 11.290762 51 39 39
-0.638297 -1.403216 11.103618 177 172 169
-0.613366 -5.261171 10.765138 104 100 101
-0.646497 1.014142 11.406281 40 40 38
-0.646814 1.502653 11.423575 57 44 38
-0.642244 0.302992 11.350925 40 36 35
-0.647187 2.124613 11.432503 41 35 35
-0.647187 2.124613 11.432503 41 35 35
-0.608449 -3.323075 10.828209 41 37 36
-0.644476 4.560730 11.596788 125 104 101
-0.643364 3.908935 11.598100 117 93 89
-0.630021 2.171256 11.445493 35 35 35
-0.579095 -4.612700 10.663309 111 105 105
-0.588954 -3.724334 10.809819 82 74 72
-0.609955 0.226569 11.276000 180 170 169
-0.616242 2.716847 11.476951 56 46 47
-0.607759 2.047531 11.361426 123 104 100
-0.602214 -0.213410 11.296799 135 134 132
-0.601187 0.989585 11.350775 153 158 152
-0.612820 3.858423 11.544185 120 96 92
-0.590064 -0.864374 11.233589 139 140 135
-0.627830 7.967224 12.206899 51 47 48
-0.631291 8.075355 12.310633 44 43 48
-0.586248 1.469211 11.427946 160 150 148
-0.579617 2.461572 11.451907 160 145 140
-0.587118 4.740123 11.746715 139 138 134
-0.570724 5.228871 11.737264 113 100 94
-0.562610 3.375431 11.513426 47 37 36
-0.562610 3.375431 11.513426 47 37 36
-0.542530 -0.090199 11.328129 119 100 96
-0.563557 4.686918 11.754462 45 37 35
-0.538073 2.500315 11.454226 108 89 82
-0.493682 -5.928314 10.721995 78 71 78
-0.544765 4.759292 11.785255 34 33 29
-0.539178 4.862673 11.827019 36 35 33
-0.518425 3.417634 11.520493 147 142 139
-0.513978 0.842930 11.392405 165 155 145
-0.523265 5.074050 11.814709 26 22 23
-0.483494 2.731203 11.548709 48 39 40
-0.483212 4.692901 11.670233 144 140 139
-0.489575 6.034220 12.001057 33 29 28
-0.477566 5.224694 11.873075 137 127 126
-0.470291 5.122418 11.798595 132 131 126
-0.475620 7.954872 12.312595 43 40 35
-0.448633 1.480470 11.513112 154 139 134
-0.427386 -0.088483 11.311571 153 140 134
-0.427386 -0.088483 11.311571 153 140 134
-0.454245 7.829464 12.269862 56 48 46
-0.433039 5.177120 11.831673 75 60 55
-0.430774 3.351143 11.878548 150 122 111
-0.407817 0.393569 11.456563 105 94 92
-0.409642 7.314823 12.162396 138 130 127
-0.407793 7.867985 12.278084 135 130 127
-0.354335 -3.895290 10.874030 120 119 117
-0.358773 0.844084 11.317259 161 151 142
-0.331881 -5.233569 10.733878 105 101 100
-0.367801 4.573947 11.726304 117 96 91
-0.369573 5.261999 11.953190 125 107 105
-0.359343 3.027645 11.560263 141 114 103
-0.364454 6.582923 12.067657 44 39 36
-0.343125 0.230819 11.346617 120 99 96
-0.349584 4.717860 11.838476 140 136 133
-0.339065 7.944726 12.311227 65 64 60
-0.298839 -1.898764 11.119367 163 158 162
-0.298839 -1.898764 11.119367 163 158 162
-0.306239 5.180116 11.875213 136 119 112
-0.278594 5.349912 11.938446 125 125 123
-0.223054 -2.201373 11.157922 115 105 106
-0.200767 -1.849576 11.134686 140 141 143
-0.200767 -1.849576 11.134686 140 141 143
-0.192654 -4.710073 10.883531 64 54 53
-0.178602 -4.310685 10.658566 100 98 103
-0.180683 5.135467 11.817178 121 98 92
-0.148599 -4.767390 10.890491 159 165 165
-0.148599 -4.767390 10.890491 159 165 165
-0.147503 -4.981762 10.866058 143 143 145
-0.146103 -2.791970 11.075871 107 105 106
-0.148094 0.223183 11.484090 127 109 105
-0.132866 -5.174647 10.917723 73 72 77
-0.140290 5.988910 12.082163 124 120 117
-0.118665 -0.967708 11.257195 120 108 108
-0.111055 8.080684 12.536180 122 123 125
-0.092776 -5.140882 10.901382 71 70 75
-0.069380 7.964210 12.416519 45 43 46
-0.069380 7.964210 12.416519 45 43 46
-0.054268 -2.756516 11.141069 30 30 30
-0.025764 -5.268143 10.968734 24 22 27
-0.020116 -2.187606 11.144459 132 133 138
-0.013332 -4.549925 11.026557 86 90 93
-0.013553 -4.051240 11.000123 101 92 95
-0.003398 -5.700906 10.892374 23 22 27
-0.003398 -5.700906 10.892374 23 22 27
0.019409 -2.853170 11.131344 103 99 100
0.019409 -2.853170 11.131344 103 99 100
0.043198 -5.500690 10.964584 90 85 91
0.049666 -5.239343 10.988609 20 19 24
0.050454 -1.606309 11.370431 119 110 111
0.061780 -5.297324 10.958884 72 67 71
0.064953 -4.484092 11.076378 14 14 14
0.064953 -4.484092 11.076378 14 14 14
0.060535 -4.015337 11.074658 31 29 30
0.068977 4.043606 11.891037 139 138 136
0.081398 0.797032 11.699687 150 131 127
0.083627 1.999132 11.764534 121 109 109
0.090347 -0.901702 11.404602 44 43 41
0.097427 -0.853639 11.481335 39 38 36
0.099208 0.330518 11.646762 156 155 153
0.105720 -0.346205 11.619221 41 31 30
0.105237 -0.777541 11.505750 42 33 34
0.123635 -5.928563 11.018860 7 6 11
0.127360 -2.069006 11.312422 140 144 145
0.132357 -1.523935 11.488017 35 37 34
0.131463 -1.591654 11.359017 172 170 173
0.142342 0.279476 11.613761 40 35 32
0.142724 -5.292927 11.087991 22 21 26
0.144863 2.036700 11.733816 112 100 100
0.152600 -0.770896 11.554142 148 139 140
0.157528 -0.847388 11.545706 119 118 116
0.161130 -0.471339 11.529107 163 159 156
0.164493 1.482275 11.753532 46 41 38
0.171870 -4.497749 11.047073 108 108 110
0.184192 0.344627 11.654851 150 145 142
0.184192 0.344627 11.654851 150 145 142
0.194904 2.101627 11.923983 43 39 40
0.193226 -0.443110 11.515448 59 39 38
0.188499 -3.931381 11.105945 108 110 107
0.211228 2.753047 11.810335 35 35 35
0.205086 -1.642667 11.337194 134 140 140
0.213031 4.428054 11.877648 114 90 86
0.214986 0.748873 11.669302 152 153 147
0.215766 0.822022 11.715845 141 131 130
0.223588 3.317027 11.858901 39 33 33
0.226468 0.898952 11.752386 158 164 162
0.220588 -2.787100 11.231041 25 20 24
0.271367 6.516890 12.360442 116 97 93
0.258965 2.799511 11.858569 146 152 148
0.268667 5.248218 12.097281 37 33 32
0.268667 5.248218 12.097281 37 33 32
0.259591 -0.345770 11.625463 40 30 29
0.256230 -1.587584 11.341000 130 128 129
0.266288 -2.016973 11.298333 88 86 91
0.297732 5.439857 12.199546 32 24 22
0.300016 5.907278 12.277638 32 28 27
0.308980 6.597193 12.275665 116 105 103
0.296081 3.371163 11.899195 135 137 134
0.298533 -4.616158 11.223177 87 87 87
0.323385 5.376643 12.179029 129 119 118
0.315169 0.907485 11.745556 148 150 147
0.324019 1.423786 11.816127 147 128 122
0.310339 -4.710342 11.112643 91 81 82
0.328544 0.172153 11.603681 117 93 91
0.323514 -1.797661 11.430717 91 91 93
0.340912 2.618104 11.880118 128 119 112
0.369995 7.197806 12.466916 32 26 26
0.370246 5.973818 12.333779 126 125 123
0.346831 -4.655323 11.196353 14 12 13
0.353606 -5.233819 11.203759 66 65 70
0.356622 -1.653384 11.373928 77 57 56
0.425999 7.280308 12.500847 121 117 114
0.440939 7.114595 12.478065 131 117 116
0.459551 7.916521 12.630745 46 40 40
0.460779 6.977165 12.406854 73 54 48
0.439645 2.759156 11.961794 160 162 161
0.419863 -2.854557 11.319494 105 96 97
0.467280 6.655896 12.368177 134 123 119
0.443358 0.777552 11.791054 124 106 104
0.487986 7.938331 12.592393 123 122 118
0.463430 1.406463 11.819701 141 126 119
0.498154 7.272386 12.531696 113 109 106
0.496058 5.852829 12.319956 130 111 107
0.512517 7.236368 12.570871 59 51 49
0.483357 -1.637506 11.442038 122 108 107
0.552841 8.036876 12.694469 30 29 27
0.552841 8.036876 12.694469 30 29 27
0.557000 7.912172 12.617806 47 45 46
0.512255 -4.587578 11.255087 93 97 98
0.526938 -2.547352 11.533818 100 104 105
0.559033 -0.898007 11.654812 132 128 127
0.609421 -2.872912 11.403390 104 95 96
0.686418 7.856492 12.551433 130 126 125
0.648108 -1.750552 11.608670 128 115 109
0.638310 -6.047537 11.340294 15 10 14
0.693693 -1.008351 11.645836 119 109 108
0.680973 -3.345095 11.344183 102 102 104
0.732838 2.648466 12.104850 111 83 79
0.727339 0.777298 11.882449 113 94 88
0.727541 -2.276828 11.582817 107 107 109
0.718489 -3.275852 11.358336 59 57 60
0.742451 -3.990625 11.377750 87 87 89
0.774287 -0.970824 11.779142 20 16 15
0.793164 -1.457017 11.675269 147 146 142
0.819214 -1.112115 11.746385 140 137 130
0.819214 -1.112115 11.746385 140 137 130
0.814455 -1.315910 11.682612 162 162 154
0.858620 2.634209 12.115149 116 101 96
0.840974 -0.912173 11.729834 125 124 122
0.863668 -0.371081 11.915789 45 40 37
0.883348 3.237880 12.116153 106 82 78
0.891786 2.118599 12.193805 148 150 149
0.849957 -2.304843 11.534302 103 98 102
0.877493 0.167238 11.891009 151 144 138
0.855768 -2.915195 11.516362 112 103 106
0.853910 -3.964609 11.387045 109 110 112
0.860603 -2.621573 11.500905 135 135 137
0.896265 -0.037351 11.864620 169 158 152
0.910570 1.376029 12.038400 139 123 110
0.910578 1.379251 12.025976 139 123 110
0.910578 1.379251 12.025976 139 123 110
0.893403 -1.567468 11.715420 33 33 33
0.937227 2.590470 12.134709 121 106 101
0.891699 -2.694997 11.532533 13 13 15
0.902495 -2.225804 11.625534 37 36 34
0.918464 -1.000836 11.835137 38 34 31
0.890270 -5.225767 11.346437 134 135 139
0.948269 2.429222 12.164037 114 101 95
0.943181 0.889175 12.016750 33 31 32
0.945753 -0.071319 11.917472 44 36 34
0.945753 -0.071319 11.917472 44 36 34
0.936765 -0.929604 11.777915 143 142 140
0.978489 2.743051 12.259048 141 141 143
0.960950 -0.973355 11.876522 21 20 18
0.995765 2.668433 12.277477 36 31 28
0.988357 2.370277 12.158624 45 37 34
0.944098 -2.689795 11.586324 123 123 125
0.995202 3.351869 12.216666 135 135 137
0.983933 1.465564 11.968591 159 164 160
1.062923 7.957044 12.856894 119 120 115
0.959880 -2.755061 11.590280 125 131 131
0.964192 -2.290244 11.632966 133 129 130
1.009072 1.027552 12.055830 149 145 142
1.007020 0.887712 12.014041 158 154 151
1.014467 0.887675 12.077531 157 156 152
1.042645 5.125319 12.422123 110 105 101
1.026101 2.093855 12.140412 153 155 152
1.026101 2.093855 12.140412 153 155 152
1.090608 8.166656 12.857197 118 111 103
1.048745 5.099672 12.379230 117 112 108
1.050826 3.928399 12.313582 32 32 34
1.110531 7.950057 12.901069 129 129 129
1.048486 3.444502 12.230413 42 34 31
1.063106 0.067587 12.217635 102 89 83
1.074897 4.623837 12.367270 17 17 15
1.074409 2.711222 12.229817 137 141 140
1.074409 2.711222 12.229817 137 141 140
1.081697 3.399609 12.259065 145 140 134
1.101763 5.184842 12.444409 32 28 29
1.071460 1.957735 12.087292 142 135 127
1.088971 3.660927 12.207006 138 130 128
1.138479 6.451236 12.623549 100 82 80
1.096610 1.889433 12.185391 95 84 78
1.163255 7.792786 12.810934 46 44 47
1.034930 -3.497696 11.459305 91 87 88
1.146636 5.833925 12.588053 114 96 92
1.115920 3.366063 12.233244 133 132 128
1.135272 4.609207 12.356361 131 130 128
1.178526 7.780434 12.723608 34 35 39
1.140906 1.471749 12.200648 138 142 141
1.154714 1.331469 12.096101 82 73 68
1.207968 5.981516 12.595998 134 124 125
1.109053 -3.468165 11.569874 18 13 17
1.258808 7.746627 12.909068 114 106 104
1.189727 1.423418 12.212490 41 37 38
1.263027 7.226912 12.763745 120 121 123
1.318455 6.521707 12.747907 28 22 22
1.197674 -6.112173 11.540405 74 69 66
1.209713 -2.767352 11.678766 103 109 109
1.349277 5.180814 12.373202 115 113 114
1.275098 -6.069188 11.591542 10 5 9
1.323789 -2.150321 11.741100 112 111 109
1.415905 4.451535 12.401361 99 78 73
1.322965 -4.011794 11.543878 85 85 83
1.450655 5.775495 12.613527 108 96 96
1.455083 -1.436529 11.857416 74 60 57
1.437086 -4.004055 11.591294 80 79 77
1.556861 1.356709 12.436860 104 91 85
1.508850 -2.074569 11.895266 96 92 91
1.655125 6.563350 12.893415 123 117 117
1.576454 0.715658 12.262748 108 88 87
1.544312 -3.448904 11.781570 84 84 86
1.566703 -4.781078 11.769019 23 19 18
1.637826 1.552066 12.320898 132 124 122
1.755037 7.851656 13.099684 48 44 45
1.755037 7.851656 13.099684 48 44 45
1.725796 6.509880 12.814407 130 129 127
1.772148 8.273671 13.136235 36 40 43
1.588857 -6.025194 11.763073 69 67 68
1.773721 8.277870 13.143218 36 40 43
1.713720 5.758122 12.709369 122 104 100
1.591042 -2.149512 11.746531 96 94 95
1.626261 -5.524889 11.881116 18 16 19
1.618134 -4.714055 11.769743 73 71 72
1.625595 -2.973301 11.844222 76 64 66
1.773601 5.843361 12.822489 30 25 21
1.676665 -0.510624 12.127661 126 123 116
1.784899 5.866638 12.880054 30 25 21
1.671640 -0.801840 12.065962 136 131 128
1.638595 -5.609787 11.756816 11 6 3
1.638595 -5.609787 11.756816 11 6 3
1.651412 -2.334110 11.866182 116 106 105
1.656404 -3.475706 11.886332 87 87 87
1.859418 8.479868 13.273383 105 109 112
1.741377 1.940866 12.435675 113 100 94
1.853954 7.934916 13.172459 119 119 119
1.703339 -1.020600 12.110644 26 24 25
1.703339 -1.020600 12.110644 26 24 25
1.703339 -1.020600 12.110644 26 24 25
1.735130 0.741453 12.339266 95 74 71
1.767074 3.224681 12.488173 103 82 81
1.674844 -4.178992 11.803654 27 21 21
1.697348 -2.110459 11.940147 26 22 23
1.694879 -2.909978 11.912084 23 25 24
1.740219 -0.460267 12.221737 30 22 20
1.702127 -2.238637 11.910123 30 29 27
1.785330 1.323269 12.467166 112 101 97
1.777334 1.403601 12.363980 35 31 30
1.705644 -4.688644 11.827455 17 13 12
1.686539 -5.746592 11.682489 80 75 71
1.700336 -5.994304 11.762362 72 68 67
1.801398 0.775044 12.405316 33 31 32
1.834370 4.446880 12.644341 101 81 80
1.793565 0.235502 12.315505 143 145 142
1.803638 1.592619 12.388903 36 25 23
1.830772 2.002524 12.534076 29 30 25
1.851090 3.972234 12.672696 127 127 127
1.872699 5.231575 12.785439 122 120 121
1.832050 2.648254 12.497897 37 31 33
1.888767 5.724040 12.808211 105 85 78
1.740621 -2.944546 11.798471 126 128 127
1.864816 4.355458 12.619528 113 98 91
1.818895 0.613076 12.274764 146 140 140
1.758669 -3.433439 11.822733 107 105 106
1.833509 0.708858 12.324828 135 134 132
1.828729 -0.550051 12.228751 80 61 57
1.873689 1.943747 12.505510 135 131 128
1.815325 -1.628948 12.079932 108 110 105
1.905362 3.245757 12.661103 29 27 28
1.817159 -2.866357 12.044713 95 99 98
1.876608 0.811252 12.445858 119 121 120
1.876608 0.811252 12.445858 119 121 120
1.897889 3.944776 12.582623 14 12 15
1.931281 4.528010 12.756928 32 31 27
1.791272 -2.308529 11.805207 105 95 94
1.906058 2.053849 12.579258 115 119 120
1.959283 5.808703 12.900170 27 25 26
1.988575 6.567047 13.028945 137 135 136
1.881466 0.666331 12.327906 72 54 54
2.003557 5.731090 12.891706 130 120 119
2.017442 6.578708 12.968911 31 25 25
1.950925 3.167036 12.559166 111 101 102
1.885224 -0.516336 12.098737 112 96 96
1.871616 -2.922883 11.967158 29 29 29
2.037716 5.885128 12.962765 132 131 129
1.887041 -4.122783 11.929770 71 73 70
2.083092 7.041225 13.131271 26 20 20
1.924649 -2.092940 12.068412 112 100 102
1.964391 -0.498216 12.274353 102 97 94
2.040306 4.525157 12.728297 19 20 15
2.100274 6.525462 13.035937 141 135 135
1.960837 -2.091028 12.047139 15 6 7
2.022178 0.092015 12.403543 115 95 88
1.991226 -2.180568 12.058716 111 111 109
2.080859 3.150800 12.599970 102 88 88
2.088402 2.564750 12.614686 108 91 84
2.074231 0.716444 12.428556 105 95 96
2.051113 -1.603925 12.215469 104 106 105
2.223668 7.027995 13.094065 113 103 102
2.040232 -4.091060 11.960065 74 73 71
2.028209 -4.064011 11.896843 79 75 72
2.289695 7.912117 13.367710 113 114 118
2.158549 0.817795 12.508210 94 90 91
2.337228 5.896625 13.122386 139 135 134
2.384326 7.874784 13.336672 113 114 116
2.232007 -2.304296 12.093391 11 10 8
2.299500 -1.805829 12.350576 109 99 98
2.374578 0.389567 12.575459 111 105 105
2.395018 1.892463 12.560830 103 85 83
2.347841 -3.663242 12.138176 84 75 76
2.366367 -2.321110 12.219589 13 9 8
2.397598 -3.562358 12.330964 74 73 71
2.568535 5.913997 13.179360 111 106 103
2.391857 -4.174149 12.198010 65 64 62
2.664346 7.815331 13.414830 130 132 131
2.587520 4.540310 12.907002 127 127 127
2.467658 -1.632264 12.291689 102 101 99
2.555403 1.261824 12.713284 113 105 103
2.481816 -3.633640 12.247478 22 18 17
2.682334 6.977516 13.201323 113 104 99
2.701673 6.564915 13.274635 125 117 114
2.519930 -1.786534 12.350593 98 90 88
2.553666 -0.481021 12.487225 29 23 23
2.620138 2.471597 12.816376 115 104 100
2.481724 -4.200480 12.116400 12 8 7
2.589200 0.743135 12.606006 21 21 23
2.526664 -2.428711 12.294763 101 97 96
2.611873 0.117827 12.705198 24 18 18
2.584174 -0.291125 12.553876 19 9 7
2.533845 -1.701896 12.291828 14 14 14
2.533845 -1.701896 12.291828 14 14 14
2.624739 0.888085 12.717555 16 16 14
2.636460 1.342401 12.783494 38 37 35
2.527960 -4.149483 12.179663 80 78 79
2.564549 -1.602225 12.368102 11 5 7
2.660245 3.473915 12.839446 121 108 100
2.574522 -2.371439 12.379171 21 21 19
2.783478 6.541225 13.350269 124 119 116
2.649362 0.801588 12.682133 129 135 135
2.544618 -3.672771 12.163567 113 103 102
2.655373 0.804594 12.694832 129 135 135
2.779361 6.990342 13.252501 108 100 97
2.578313 -2.652909 12.299636 12 7 4
2.578313 -2.652909 12.299636 12 7 4
2.597171 -1.635534 12.365678 121 117 118
2.656916 1.006474 12.640355 149 155 151
2.731630 3.860277 12.980057 28 24 25
2.778577 5.147609 13.187193 39 35 34
2.574121 -4.959911 12.193078 72 62 63
2.632703 -1.133979 12.439126 100 96 95
2.870625 7.840103 13.546168 131 132 134
2.592834 -2.892878 12.239491 101 106 102
2.704579 2.461920 12.758853 145 144 140
2.847559 7.104908 13.377881 35 34 32
2.718416 2.027153 12.776579 132 128 127
2.609380 -2.958089 12.249351 32 28 25
2.751798 3.303556 12.916651 137 133 132
2.901671 7.762127 13.518028 48 48 48
2.766294 3.777849 12.886179 115 97 93
2.832001 5.185017 13.116917 113 117 116
2.680542 -2.316297 12.418151 86 82 81
2.954776 7.893080 13.651418 40 44 45
2.810855 2.657357 12.958460 121 125 124
2.930394 7.656992 13.445291 130 128 129
2.906756 6.410971 13.324793 31 29 30
2.687519 -3.675135 12.236346 88 76 76
3.014824 7.871566 13.631747 117 121 122
3.014824 7.871566 13.631747 117 121 122
2.954951 6.356756 13.347622 109 100 101
2.750981 -2.430854 12.426790 80 70 69
2.743121 -2.921654 12.296375 85 84 82
2.767792 -3.003748 12.405599 15 10 7
3.021884 6.529630 13.490483 127 126 124
2.850580 -2.292021 12.425146 84 84 84
2.953502 1.288095 12.844590 98 80 78
3.100073 7.023887 13.451948 109 101 98
2.952029 0.047781 12.670606 91 81 80
3.159950 7.079111 13.501529 32 28 27
3.175178 7.038262 13.520706 99 89 87
2.991948 0.210237 12.636590 120 116 115
3.221696 7.047680 13.483711 34 30 27
3.471001 9.024270 13.937834 148 152 155
3.471001 9.024270 13.937834 148 152 155
3.439174 6.981507 13.546594 114 102 102
3.525309 8.146778 13.831038 55 54 52
3.277097 -3.574695 12.550737 74 66 63
3.302745 -4.332870 12.614184 13 9 10
3.437337 1.841332 13.140399 110 97 91
3.366827 -0.711792 12.817431 101 90 88
3.364479 -0.824365 12.768704 105 94 92
3.383441 0.083318 12.799815 26 24 25
3.383441 0.083318 12.799815 26 24 25
3.401515 -0.548381 12.846651 33 29 26
3.484165 1.625403 13.142305 122 101 98
3.489345 1.464033 13.154832 108 90 90
3.393191 -1.717767 12.748247 90 84 86
3.472617 0.679929 13.042151 33 32 28
3.544131 3.205128 13.307587 37 33 32
3.411998 -3.085086 12.785645 20 19 17
3.531176 3.839193 13.218642 23 21 22
3.524255 1.921998 13.190242 27 26 24
3.600091 5.432345 13.463995 108 99 100
3.595558 4.065537 13.405480 19 16 11
3.707780 7.027166 13.786605 113 99 96
3.650198 5.744434 13.573960 27 26 24
3.434732 -1.093639 12.765875 120 115 112
3.681407 6.473310 13.663986 110 109 104
3.441490 -3.580592 12.762032 22 14 12
3.674876 5.697291 13.620862 46 42 39
3.479176 0.132663 12.905663 107 103 102
3.538116 1.840231 13.102568 137 133 132
3.548876 1.382853 13.094543 142 137 134
3.615880 4.036714 13.311068 120 109 105
3.435465 -2.245741 12.635081 97 87 88
3.589694 2.639007 13.197639 123 124 126
3.444510 -2.317985 12.648972 92 88 87
3.659956 4.524998 13.443143 132 130 131
3.659956 4.524998 13.443143 132 130 131
3.588433 2.769686 13.174534 127 123 120
3.465954 -3.624147 12.706567 78 74 73
3.723122 6.413435 13.647932 36 30 30
3.602907 1.998147 13.214575 112 113 115
3.669696 5.230490 13.441797 128 124 123
3.684940 5.179439 13.479616 114 114 114
3.578207 0.730016 13.056575 115 117 114
3.524780 -4.463604 12.751637 90 81 82
3.511531 -2.397932 12.677001 18 14 11
3.719607 4.465358 13.405523 19 15 16
3.528499 -2.260287 12.664595 80 74 74
3.848162 7.003502 13.813892 119 110 111
3.803956 5.719132 13.626101 122 114 112
3.711084 3.191677 13.258161 21 22 17
3.844877 6.512161 13.731595 106 108 105
3.591376 -1.857153 12.740161 89 75 72
3.736846 -0.026377 13.007833 92 75 68
4.189183 7.779854 14.060252 35 38 43
3.888175 0.590040 12.961699 106 92 89
4.186422 6.414784 13.913537 30 25 22
3.887033 -1.864382 12.898825 82 72 71
3.892749 -4.387991 12.889955 10 6 5
4.261395 7.943043 14.096999 108 108 110
4.291184 7.844788 14.134905 123 127 128
4.014853 0.191914 13.139215 108 97 91
4.037261 0.312447 13.193774 110 97 89
4.053948 0.490123 13.205394 112 103 96
4.053948 0.490123 13.205394 112 103 96
4.092052 -3.782686 13.084204 9 5 4
4.429596 6.494794 14.060542 119 119 121
4.105999 -2.367632 12.953310 84 82 83
4.308653 2.585557 13.444112 129 130 125
4.254017 1.177534 13.271157 101 93 90
4.245706 -3.840672 13.230857 19 15 12
4.458148 5.086566 13.887090 101 87 87
4.458148 5.086566 13.887090 101 87 87
4.226577 -3.982896 13.131248 75 64 62
4.356985 2.199603 13.535336 98 88 86
4.361084 1.268320 13.499403 30 28 29
4.404597 3.697704 13.626016 111 97 96
4.329601 0.010355 13.391868 29 24 21
4.559779 6.320639 14.080489 122 112 110
4.510574 5.185830 13.922400 126 125 123
4.386351 1.958125 13.515517 10 10 8
4.299982 -0.577018 13.238948 35 30 27
4.411263 2.531137 13.586166 31 27 26
4.412990 3.184784 13.591793 14 13 11
4.556158 5.855908 14.009866 119 124 120
4.274767 -1.823887 13.123535 21 15 15
4.423305 3.258759 13.584365 20 11 12
4.516149 4.626832 13.825006 17 12 8
4.593746 6.061856 14.062179 127 124 119
4.385234 -0.027424 13.391641 104 94 92
4.340753 -2.414815 13.244923 83 79 78
4.291684 -3.848709 13.088805 90 82 80
4.291684 -3.848709 13.088805 90 82 80
4.356419 -0.525591 13.278765 108 107 105
4.696280 7.679205 14.278938 107 107 107
4.696280 7.679205 14.278938 107 107 107
4.330273 -1.772944 13.140695 84 79 76
4.602763 5.767784 13.959280 29 23 23
4.602763 5.767784 13.959280 29 23 23
4.574167 5.001245 13.867641 121 113 111
4.555075 4.551134 13.801731 125 124 120
4.485313 3.225017 13.591290 112 108 107
4.457845 1.335763 13.509239 112 113 115
4.489316 3.357566 13.598097 123 113 112
4.447221 1.975644 13.458277 118 117 115
4.406413 -1.152500 13.337166 87 87 87
4.355475 -1.896441 13.139627 90 82 80
4.716616 7.706223 14.224074 42 43 45
4.716616 7.706223 14.224074 42 43 45
4.334579 -3.052226 13.047668 67 67 67
4.501696 2.397975 13.546155 98 95 90
4.501696 2.397975 13.546155 98 95 90
4.675391 6.322982 14.042632 110 109 107
4.430366 -0.590894 13.294601 27 22 19
4.381063 -1.778482 13.086299 85 80 77
4.395372 -2.576106 13.139770 56 51 48
4.803032 7.765346 14.317472 43 45 42
4.787917 6.452414 14.221120 35 31 30
4.896754 9.282579 14.493516 107 121 124
4.575071 2.506282 13.515058 33 31 32
4.543628 0.467697 13.374764 163 153 151
4.897201 7.790807 14.335632 117 119 116
4.877115 7.763932 14.277730 117 119 116
4.632118 1.175925 13.470756 105 93 93
4.876051 7.064098 14.132371 124 124 126
5.205716 5.723532 14.263783 100 87 81
5.236787 6.454840 14.311182 124 123 119
4.914455 -2.456592 13.395621 80 74 76
5.005054 0.659300 13.545294 112 107 111
5.441550 7.780524 14.638535 34 34 36
5.463156 8.361917 14.638078 52 52 54
5.270429 4.390594 14.112967 95 79 79
5.270429 4.390594 14.112967 95 79 79
5.066576 -2.003052 13.532126 77 67 68
5.297947 5.130010 14.134695 130 124 126
5.195855 1.772405 13.856600 111 106 102
5.200929 1.305238 13.853580 115 114 110
5.135352 -1.218933 13.668762 82 80 81
5.140627 -0.582075 13.667352 99 101 96
5.423882 5.761926 14.396299 34 30 27
5.278015 3.796118 13.976980 30 26 27
5.278015 3.796118 13.976980 30 26 27
5.239828 0.591467 13.838696 23 14 15
5.277956 1.866549 13.938569 33 27 27
5.371287 4.424375 14.162093 24 18 18
5.245330 1.252523 13.822288 29 25 24
5.226117 -0.026734 13.762767 27 17 16
5.493469 5.709716 14.427344 102 93 94
5.208649 -1.931373 13.663157 20 16 15
5.511251 6.432867 14.437606 36 32 31
5.412141 4.331309 14.169841 107 99 96
5.514110 6.563499 14.424226 36 30 30
5.437683 5.259716 14.225218 104 98 98
5.216569 -3.240869 13.612836 15 10 7
5.183608 -2.548556 13.518556 4 0 0
5.301027 1.319453 13.827022 118 114 111
5.296072 1.422332 13.818769 125 115 113
5.334507 1.789552 13.914818 109 105 106
5.246354 -0.937970 13.674797 89 78 76
5.274553 -0.794159 13.745678 103 98 94
5.239054 -0.711535 13.653143 98 93 89
5.355412 3.839211 13.933782 116 108 106
5.402368 3.214893 14.018173 122 120 121
5.319231 -0.594337 13.800679 92 92 90
5.278353 -1.224540 13.690407 84 83 81
5.273626 -2.496210 13.654755 72 64 62
5.328656 0.049814 13.785026 108 107 105
5.443275 3.736751 14.079093 109 89 88
5.588768 6.941324 14.449535 107 103 100
5.236514 -2.000390 13.512383 72 61 59
5.553372 6.379330 14.310432 113 113 111
5.355590 -1.938134 13.744627 20 14 14
5.547564 4.445499 14.217232 29 25 26
5.385770 -0.657145 13.796738 30 26 23
5.657823 7.015704 14.481426 47 47 45
5.386381 0.008188 13.668736 86 78 76
5.700155 5.096385 14.465712 86 82 83
5.462326 0.530421 13.840107 93 77 78
5.620573 3.711305 14.121943 98 80 76
5.556017 -3.987518 13.800600 70 59 57
5.946945 7.774151 14.741020 103 107 108
6.048185 7.883546 14.972471 106 111 114
6.012223 7.775184 14.808499 109 112 117
6.183379 9.552028 15.130946 128 143 148
6.125065 9.335274 14.975934 40 53 59
6.080386 7.746684 14.835798 36 37 42
5.753739 -0.597904 14.016466 84 81 76
5.782849 -1.914838 13.978133 76 71 68
6.142805 7.754321 14.789781 111 114 119
6.172828 7.786047 14.858596 120 123 128
5.776947 -0.671175 13.909908 23 19 16
5.911881 -0.621601 14.098539 97 96 92
6.197522 5.123968 14.684093 24 20 19
6.051806 2.379546 14.319312 98 87 85
6.337851 7.731285 14.958542 36 36 38
5.983484 -0.016201 14.065033 84 80 79
6.135139 3.201777 14.397602 119 117 118
6.017459 1.152444 14.106526 86 76 75
5.944654 -3.992329 13.915197 67 59 56
6.357629 7.055410 14.869611 30 24 26
6.049285 -1.942179 14.150910 77 73 70
6.151996 3.676933 14.390298 113 103 102
6.140483 3.734752 14.311827 27 23 24
6.174375 3.144849 14.389444 15 9 9
6.211607 2.495460 14.460774 32 31 29
6.150639 1.977256 14.280913 26 22 23
6.207276 3.359366 14.383854 32 16 16
6.160690 1.197564 14.256539 23 19 20
6.347832 5.737336 14.685496 33 29 26
6.178443 3.648193 14.248673 109 99 98
6.171038 1.905443 14.229094 104 100 99
6.287702 3.207477 14.485541 102 98 97
6.412676 6.021643 14.769977 30 21 22
6.174538 -0.099002 14.221335 28 24 23
6.279426 3.205924 14.460458 99 95 92
6.208894 1.269579 14.263221 104 104 104
6.122880 -1.353495 14.050113 16 12 11
6.375286 4.539818 14.626307 99 100 95
6.223409 3.584602 14.242146 114 110 101
6.260478 3.407066 14.316142 118 107 101
6.710453 7.868675 15.227870 115 119 122
6.479211 5.008401 14.633247 111 106 102
6.709434 7.747462 15.123293 43 44 46
6.749149 9.194482 15.154189 47 60 66
6.749149 9.194482 15.154189 47 60 66
6.423027 -4.081161 14.404009 7 1 3
6.392556 -2.592215 14.287526 73 67 67
6.462894 1.260455 14.434047 105 103 104
6.745778 8.245181 15.039271 92 97 100
6.493788 -2.691437 14.254717 14 8 8
6.953574 9.720745 15.102131 156 175 179
6.932348 4.455991 14.893506 28 23 20
7.033502 6.370296 15.043081 36 36 36
7.046381 4.436137 14.880958 27 23 24
7.309883 7.815223 15.435307 120 121 123
7.218102 6.491814 15.230560 103 107 106
7.174232 5.695971 15.073619 24 18 18
6.897418 -1.349000 14.479533 76 76 74
6.901151 -2.721605 14.461840 19 14 11
7.083473 3.879747 14.790447 44 39 36
7.143255 3.113935 14.897701 28 22 22
7.198843 5.106448 15.008628 26 25 23
7.341828 7.026347 15.295313 47 47 47
7.067982 1.192329 14.723294 22 18 19
7.059211 2.678632 14.702859 42 30 32
7.201718 5.434916 14.979201 107 102 99
7.144204 1.642111 14.838787 28 20 17
7.098478 1.889070 14.716306 121 122 117
6.954518 -0.926501 14.416801 18 14 11
7.117444 2.999007 14.720413 85 75 74
7.297861 5.192541 15.061955 98 94 91
7.076864 -2.618152 14.598188 12 4 2
7.200888 1.537405 14.822318 103 94 89
7.111194 1.342864 14.641695 112 98 95
7.555803 7.822700 15.549801 115 117 114
7.175428 1.241645 14.727156 110 109 104
7.345224 1.834129 14.973131 24 23 21
